<?xml version="1.0" encoding="UTF-8"?>
<svg xmlns="http://www.w3.org/2000/svg"
     xmlns:xlink="http://www.w3.org/1999/xlink"
     version="1.2"
     width="160mm" height="160mm" viewBox="0 0 160 160"
     stroke="none"
     fill="#000000"
     stroke-width="0.3"
     font-size="3.88"
>
<defs>
  <marker id="arrow" markerWidth="15" markerHeight="7" refX="5" refY="3.5" orient="auto" markerUnits="strokeWidth">
    <path d="M0,0 L15,3.5 L0,7 z" stroke="context-stroke" fill="context-stroke"/>
  </marker>
</defs>
<g fill="#000000" fill-opacity="0.000" id="img-1d60737a-1">
  <g transform="translate(80,80)">
    <path d="M-80,-80 L80,-80 80,80 -80,80  z" class="primitive"/>
  </g>
</g>
<g stroke="#D3D3D3" id="img-1d60737a-2">
</g>
<g stroke="#D3D3D3" id="img-1d60737a-3">
  <g transform="translate(99.35,111.55)" stroke-width="0.92">
    <path fill="none" d="M41.66,-27.77 L-41.66,27.77 " class="primitive"/>
  </g>
  <g transform="translate(99.35,48.45)" stroke-width="0.92">
    <path fill="none" d="M41.66,27.77 L-41.66,-27.77 " class="primitive"/>
  </g>
  <g transform="translate(128.56,116.21)" stroke-width="0.2">
    <path fill="none" d="M-12.18,24.37 L12.18,-24.37 " class="primitive"/>
  </g>
  <g transform="translate(83.22,146.67)" stroke-width="0.98">
    <path fill="none" d="M23.31,0 L-23.31,0 " class="primitive"/>
  </g>
  <g transform="translate(66.01,115.12)" stroke-width="1.11">
    <path fill="none" d="M41.66,27.77 L-41.66,-27.77 " class="primitive"/>
  </g>
  <g transform="translate(81.44,82.88)" stroke-width="0.22">
    <path fill="none" d="M28.85,57.7 L-28.85,-57.7 " class="primitive"/>
  </g>
  <g transform="translate(113.33,83.22)" stroke-width="0.08">
    <path fill="none" d="M0,56.64 L0,-56.64 " class="primitive"/>
  </g>
  <g transform="translate(76.78,80)" stroke-width="0.43">
    <path fill="none" d="M-56.64,0 L56.64,0 " class="primitive"/>
  </g>
  <g transform="translate(28.56,110.45)" stroke-width="1.22">
    <path fill="none" d="M-12.18,-24.37 L12.18,24.37 " class="primitive"/>
  </g>
  <g transform="translate(46.67,76.78)" stroke-width="0.71">
    <path fill="none" d="M-0,-56.64 L0,56.64 " class="primitive"/>
  </g>
  <g transform="translate(31.44,43.79)" stroke-width="0.11">
    <path fill="none" d="M12.18,-24.37 L-12.18,24.37 " class="primitive"/>
  </g>
  <g transform="translate(128.56,43.79)" stroke-width="0.49">
    <path fill="none" d="M-12.18,-24.37 L12.18,24.37 " class="primitive"/>
  </g>
  <g transform="translate(81.44,77.12)" stroke-width="0.84">
    <path fill="none" d="M28.85,-57.7 L-28.85,57.7 " class="primitive"/>
  </g>
  <g transform="translate(66.01,44.88)" stroke-width="0.42">
    <path fill="none" d="M41.66,-27.77 L-41.66,27.77 " class="primitive"/>
  </g>
  <g transform="translate(83.22,13.33)" stroke-width="0.09">
    <path fill="none" d="M23.31,0 L-23.31,0 " class="primitive"/>
  </g>
</g>
<g fill="#D3D3D3" id="img-1d60737a-4">
</g>
<g fill="#D3D3D3" id="img-1d60737a-5">
  <g transform="translate(55.9,140.51)">
    <path d="M2.74,0.25 L-3.57,2.38 0.83,-2.63  z" class="primitive"/>
  </g>
  <g transform="translate(55.9,19.49)">
    <path d="M0.83,2.63 L-3.57,-2.38 2.74,-0.25  z" class="primitive"/>
  </g>
  <g transform="translate(141.7,89.93)">
    <path d="M-2.5,1.15 L1.92,-3.84 0.58,2.69  z" class="primitive"/>
  </g>
  <g transform="translate(57.76,146.67)">
    <path d="M2.15,1.73 L-4.29,0 2.15,-1.73  z" class="primitive"/>
  </g>
  <g transform="translate(22.57,86.16)">
    <path d="M0.83,2.63 L-3.57,-2.38 2.74,-0.25  z" class="primitive"/>
  </g>
  <g transform="translate(51.63,23.26)">
    <path d="M-0.58,2.69 L-1.92,-3.84 2.5,1.15  z" class="primitive"/>
  </g>
  <g transform="translate(113.33,24.43)">
    <path d="M-1.73,2.15 L0,-4.29 1.73,2.15  z" class="primitive"/>
  </g>
  <g transform="translate(135.57,80)">
    <path d="M-2.15,-1.73 L4.29,0 -2.15,1.73  z" class="primitive"/>
  </g>
  <g transform="translate(41.7,136.74)">
    <path d="M0.58,-2.69 L1.92,3.84 -2.5,-1.15  z" class="primitive"/>
  </g>
  <g transform="translate(46.67,135.57)">
    <path d="M1.73,-2.15 L-0,4.29 -1.73,-2.15  z" class="primitive"/>
  </g>
  <g transform="translate(18.3,70.07)">
    <path d="M2.5,-1.15 L-1.92,3.84 -0.58,-2.69  z" class="primitive"/>
  </g>
  <g transform="translate(141.7,70.07)">
    <path d="M0.58,-2.69 L1.92,3.84 -2.5,-1.15  z" class="primitive"/>
  </g>
  <g transform="translate(51.63,136.74)">
    <path d="M2.5,-1.15 L-1.92,3.84 -0.58,-2.69  z" class="primitive"/>
  </g>
  <g transform="translate(22.57,73.84)">
    <path d="M2.74,0.25 L-3.57,2.38 0.83,-2.63  z" class="primitive"/>
  </g>
  <g transform="translate(57.76,13.33)">
    <path d="M2.15,1.73 L-4.29,0 2.15,-1.73  z" class="primitive"/>
  </g>
</g>
<g font-size="4" fill="#000000" id="img-1d60737a-6">
</g>
<g stroke-width="0" stroke="#000000" stroke-opacity="0.000" fill="#40E0D0" id="img-1d60737a-7">
  <g transform="translate(146.67,80)">
    <circle cx="0" cy="0" r="6.53" class="primitive"/>
  </g>
  <g transform="translate(113.33,146.67)">
    <circle cx="0" cy="0" r="6.53" class="primitive"/>
  </g>
  <g transform="translate(46.67,146.67)">
    <circle cx="0" cy="0" r="6.53" class="primitive"/>
  </g>
  <g transform="translate(13.33,80)">
    <circle cx="0" cy="0" r="6.53" class="primitive"/>
  </g>
  <g transform="translate(46.67,13.33)">
    <circle cx="0" cy="0" r="6.53" class="primitive"/>
  </g>
  <g transform="translate(113.33,13.33)">
    <circle cx="0" cy="0" r="6.53" class="primitive"/>
  </g>
</g>
<g font-family="Helvetica" font-size="4" fill="#000000" id="img-1d60737a-8">
  <g transform="translate(146.67,80)">
    <g class="primitive">
      <text text-anchor="middle" dy="0.35em">CT</text>
    </g>
  </g>
  <g transform="translate(113.33,146.67)">
    <g class="primitive">
      <text text-anchor="middle" dy="0.35em">ME</text>
    </g>
  </g>
  <g transform="translate(46.67,146.67)">
    <g class="primitive">
      <text text-anchor="middle" dy="0.35em">MA</text>
    </g>
  </g>
  <g transform="translate(13.33,80)">
    <g class="primitive">
      <text text-anchor="middle" dy="0.35em">NH</text>
    </g>
  </g>
  <g transform="translate(46.67,13.33)">
    <g class="primitive">
      <text text-anchor="middle" dy="0.35em">RI</text>
    </g>
  </g>
  <g transform="translate(113.33,13.33)">
    <g class="primitive">
      <text text-anchor="middle" dy="0.35em">VT</text>
    </g>
  </g>
</g>
<g font-family="Helvetica" font-size="4" fill="#000000" id="img-1d60737a-9">
  <g transform="translate(80,0)">
    <g class="primitive">
      <text text-anchor="middle" dy="0.35em"></text>
    </g>
  </g>
</g>
</svg>
